<svg width="67" height="89" viewBox="0 0 67 89" fill="none" xmlns="http://www.w3.org/2000/svg">
<rect x="67" y="2.92866e-06" width="89" height="67" rx="33.5" transform="rotate(90 67 2.92866e-06)" fill="#C4FF00"/>
<path d="M44.1831 41.6833C44.0282 41.5271 43.8438 41.4031 43.6407 41.3185C43.4376 41.2339 43.2198 41.1903 42.9998 41.1903C42.7798 41.1903 42.5619 41.2339 42.3588 41.3185C42.1557 41.4031 41.9714 41.5271 41.8164 41.6833L34.1831 49.3166C34.0282 49.4728 33.8438 49.5968 33.6407 49.6814C33.4376 49.7661 33.2198 49.8096 32.9998 49.8096C32.7798 49.8096 32.5619 49.7661 32.3588 49.6814C32.1557 49.5968 31.9714 49.4728 31.8164 49.3166L24.1831 41.6833C24.0282 41.5271 23.8438 41.4031 23.6407 41.3185C23.4376 41.2339 23.2198 41.1903 22.9998 41.1903C22.7798 41.1903 22.5619 41.2339 22.3588 41.3185C22.1557 41.4031 21.9714 41.5271 21.8164 41.6833C21.506 41.9956 21.3318 42.418 21.3318 42.8583C21.3318 43.2986 21.506 43.721 21.8164 44.0333L29.4664 51.6833C30.4039 52.6196 31.6748 53.1456 32.9998 53.1456C34.3248 53.1456 35.5956 52.6196 36.5331 51.6833L44.1831 44.0333C44.4935 43.721 44.6678 43.2986 44.6678 42.8583C44.6678 42.418 44.4935 41.9956 44.1831 41.6833Z" fill="#1E1E1E"/>
</svg>
