<svg width="43" height="27" viewBox="0 0 43 27" fill="none" xmlns="http://www.w3.org/2000/svg">
<path d="M18.589 14.9037C17.9353 14.0904 17.1868 13.468 16.3487 13.047C17.0893 12.5998 17.7271 12.0506 18.2542 11.3968C19.1424 10.2932 19.5931 8.9098 19.5931 7.28318C19.5931 5.92592 19.2321 4.67851 18.5178 3.57754C17.8062 2.47656 16.7467 1.59263 15.3682 0.9493C14.0188 0.319049 12.3926 0 10.5398 0H0V27.0066H11.0248C12.8302 27.0066 14.4432 26.6798 15.8163 26.0364C17.2158 25.3826 18.307 24.4673 19.0555 23.3193C19.8066 22.166 20.1888 20.8558 20.1888 19.4253C20.1888 17.749 19.6511 16.2296 18.589 14.9063V14.9037ZM12.9909 9.98203C12.3399 10.5051 11.3885 10.7718 10.1682 10.7718H5.60858V4.78835H10.1682C11.3832 4.78835 12.3294 5.06294 12.9804 5.60689C13.605 6.12731 13.9081 6.84648 13.9081 7.79839C13.9081 8.7503 13.6077 9.48777 12.9909 9.98203ZM5.60858 15.5628H10.5029C11.7838 15.5628 12.7695 15.8713 13.5154 16.5068C14.2297 17.1161 14.5776 17.9242 14.5776 18.9808C14.5776 20.0373 14.256 20.7826 13.5918 21.3396C12.904 21.9176 11.9156 22.2105 10.6505 22.2105H5.60858V15.5628Z" fill="#70D727"/>
<path d="M41.7217 10.3875C40.8731 8.86546 39.6712 7.66514 38.1478 6.82306C36.6271 5.98098 34.8691 5.55469 32.9293 5.55469C30.9895 5.55469 29.0998 5.99403 27.5421 6.85964C25.9819 7.72787 24.7537 8.97532 23.8945 10.5732C23.0352 12.1684 22.6004 14.0409 22.6004 16.1382C22.6004 18.2356 23.0484 20.1106 23.934 21.7032C24.8196 23.2985 26.0583 24.5537 27.6186 25.4324C29.1762 26.3111 30.9632 26.7557 32.932 26.7557C35.3488 26.7557 37.402 26.1464 39.036 24.946C40.6701 23.7457 41.814 22.1818 42.4386 20.3015L42.4834 20.1681H37.7024L37.6734 20.2257C36.7536 22.0746 35.1591 23.0108 32.9293 23.0108C31.377 23.0108 30.0486 22.5218 28.9812 21.562C27.9401 20.6232 27.3418 19.3679 27.2022 17.8276H42.8366L42.8498 17.7413C42.9499 17.1215 43 16.4206 43 15.6596C43 13.6826 42.5704 11.9095 41.7217 10.3875ZM29.055 10.6595C30.0723 9.75724 31.3137 9.30222 32.7422 9.30222C34.3209 9.30222 35.6625 9.7651 36.7299 10.6804C37.7683 11.5696 38.3192 12.7647 38.3666 14.2291H27.247C27.4578 12.7411 28.0666 11.5408 29.0576 10.6621L29.055 10.6595Z" fill="#70D727"/>
<path d="M38.0056 0.622559H27.5923V3.07033H38.0056V0.622559Z" fill="#70D727"/>
</svg>
