<svg width="44" height="44" viewBox="0 0 44 44" fill="none" xmlns="http://www.w3.org/2000/svg">
<g clip-path="url(#clip0_1_139)">
<path d="M3.66667 20.1667H23.8333C24.8058 20.1667 25.7384 19.7804 26.4261 19.0927C27.1137 18.4051 27.5 17.4725 27.5 16.5V3.66667C27.5 2.69421 27.1137 1.76158 26.4261 1.07394C25.7384 0.386308 24.8058 0 23.8333 0L3.66667 0C2.69421 0 1.76158 0.386308 1.07394 1.07394C0.386308 1.76158 0 2.69421 0 3.66667L0 16.5C0 17.4725 0.386308 18.4051 1.07394 19.0927C1.76158 19.7804 2.69421 20.1667 3.66667 20.1667ZM3.66667 3.66667H23.8333V16.5H3.66667V3.66667Z" fill="#70D727"/>
<path d="M40.3337 0H34.8337C33.8612 0 32.9286 0.386308 32.2409 1.07394C31.5533 1.76158 31.167 2.69421 31.167 3.66667V16.5C31.167 17.4725 31.5533 18.4051 32.2409 19.0927C32.9286 19.7804 33.8612 20.1667 34.8337 20.1667H40.3337C41.3061 20.1667 42.2387 19.7804 42.9264 19.0927C43.614 18.4051 44.0003 17.4725 44.0003 16.5V3.66667C44.0003 2.69421 43.614 1.76158 42.9264 1.07394C42.2387 0.386308 41.3061 0 40.3337 0V0ZM40.3337 16.5H34.8337V3.66667H40.3337V16.5Z" fill="#70D727"/>
<path d="M9.16667 23.834H3.66667C2.69421 23.834 1.76158 24.2203 1.07394 24.9079C0.386308 25.5956 0 26.5282 0 27.5006L0 40.334C0 41.3064 0.386308 42.239 1.07394 42.9267C1.76158 43.6143 2.69421 44.0006 3.66667 44.0006H9.16667C10.1391 44.0006 11.0718 43.6143 11.7594 42.9267C12.447 42.239 12.8333 41.3064 12.8333 40.334V27.5006C12.8333 26.5282 12.447 25.5956 11.7594 24.9079C11.0718 24.2203 10.1391 23.834 9.16667 23.834ZM9.16667 40.334H3.66667V27.5006H9.16667V40.334Z" fill="#70D727"/>
<path d="M40.3333 23.834H20.1667C19.1942 23.834 18.2616 24.2203 17.5739 24.9079C16.8863 25.5956 16.5 26.5282 16.5 27.5006V40.334C16.5 41.3064 16.8863 42.239 17.5739 42.9267C18.2616 43.6143 19.1942 44.0006 20.1667 44.0006H40.3333C41.3058 44.0006 42.2384 43.6143 42.9261 42.9267C43.6137 42.239 44 41.3064 44 40.334V27.5006C44 26.5282 43.6137 25.5956 42.9261 24.9079C42.2384 24.2203 41.3058 23.834 40.3333 23.834ZM40.3333 40.334H20.1667V27.5006H40.3333V40.334Z" fill="#70D727"/>
</g>
<defs>
<clipPath id="clip0_1_139">
<rect width="44" height="44" fill="white"/>
</clipPath>
</defs>
</svg>
