<svg width="48" height="48" viewBox="0 0 48 48" fill="none" xmlns="http://www.w3.org/2000/svg">
<g clip-path="url(#clip0_1_129)">
<path d="M38 0H22C19.3488 0.00317572 16.8071 1.05776 14.9324 2.93244C13.0578 4.80712 12.0032 7.34881 12 10V22H10C7.34881 22.0032 4.80712 23.0578 2.93244 24.9324C1.05776 26.8071 0.00317572 29.3488 0 32L0 38C0.00317572 40.6512 1.05776 43.1929 2.93244 45.0676C4.80712 46.9422 7.34881 47.9968 10 48H16C18.6512 47.9968 21.1929 46.9422 23.0676 45.0676C24.9422 43.1929 25.9968 40.6512 26 38V36H38C40.6512 35.9968 43.1929 34.9422 45.0676 33.0676C46.9422 31.1929 47.9968 28.6512 48 26V10C47.9968 7.34881 46.9422 4.80712 45.0676 2.93244C43.1929 1.05776 40.6512 0.00317572 38 0V0ZM22 32C20.4087 32 18.8826 31.3679 17.7574 30.2426C16.6321 29.1174 16 27.5913 16 26C17.5913 26 19.1174 26.6321 20.2426 27.7574C21.3679 28.8826 22 30.4087 22 32ZM22 38C22 39.5913 21.3679 41.1174 20.2426 42.2426C19.1174 43.3679 17.5913 44 16 44H10C8.4087 44 6.88258 43.3679 5.75736 42.2426C4.63214 41.1174 4 39.5913 4 38V32C4 30.4087 4.63214 28.8826 5.75736 27.7574C6.88258 26.6321 8.4087 26 10 26H12C12.0032 28.6512 13.0578 31.1929 14.9324 33.0676C16.8071 34.9422 19.3488 35.9968 22 36V38ZM44 26C44 27.5913 43.3679 29.1174 42.2426 30.2426C41.1174 31.3679 39.5913 32 38 32H26C25.9996 30.0406 25.42 28.125 24.334 26.494L36 14.828V20C36 20.5304 36.2107 21.0391 36.5858 21.4142C36.9609 21.7893 37.4696 22 38 22C38.5304 22 39.0391 21.7893 39.4142 21.4142C39.7893 21.0391 40 20.5304 40 20V14C40 12.4087 39.3679 10.8826 38.2426 9.75736C37.1174 8.63214 35.5913 8 34 8H28C27.4696 8 26.9609 8.21071 26.5858 8.58579C26.2107 8.96086 26 9.46957 26 10C26 10.5304 26.2107 11.0391 26.5858 11.4142C26.9609 11.7893 27.4696 12 28 12H33.172L21.506 23.666C19.875 22.58 17.9594 22.0004 16 22V10C16 8.4087 16.6321 6.88258 17.7574 5.75736C18.8826 4.63214 20.4087 4 22 4H38C39.5913 4 41.1174 4.63214 42.2426 5.75736C43.3679 6.88258 44 8.4087 44 10V26Z" fill="#70D727"/>
</g>
<defs>
<clipPath id="clip0_1_129">
<rect width="48" height="48" fill="white"/>
</clipPath>
</defs>
</svg>
