<svg width="40" height="40" viewBox="0 0 40 40" fill="none" xmlns="http://www.w3.org/2000/svg">
<path d="M29.9898 0H10.0102C4.49044 0 0 4.6899 0 10.4548V29.5452C0 35.3101 4.49044 40 10.0102 40H29.9898C35.5096 40 40 35.3101 40 29.5452V10.4548C40 4.6899 35.5096 0 29.9898 0ZM3.53128 10.4548C3.53128 6.72416 6.43819 3.68812 10.0102 3.68812H29.9898C33.5618 3.68812 36.4687 6.72416 36.4687 10.4548V29.5452C36.4687 33.2758 33.5618 36.3119 29.9898 36.3119H10.0102C6.43819 36.3119 3.53128 33.2758 3.53128 29.5452V10.4548Z" fill="#70D727"/>
<path d="M20.0001 29.722C25.133 29.722 29.3112 25.3605 29.3112 19.9972C29.3112 14.6339 25.1352 10.2725 20.0001 10.2725C14.8649 10.2725 10.6889 14.6339 10.6889 19.9972C10.6889 25.3605 14.8649 29.722 20.0001 29.722ZM20.0001 13.963C23.1875 13.963 25.78 16.6706 25.78 19.9996C25.78 23.3286 23.1875 26.0362 20.0001 26.0362C16.8127 26.0362 14.2202 23.3286 14.2202 19.9996C14.2202 16.6706 16.8127 13.963 20.0001 13.963Z" fill="#70D727"/>
<path d="M30.1731 11.8434C31.5553 11.8434 32.6819 10.6692 32.6819 9.22323C32.6819 7.77728 31.5576 6.60303 30.1731 6.60303C28.7886 6.60303 27.6643 7.77728 27.6643 9.22323C27.6643 10.6692 28.7886 11.8434 30.1731 11.8434Z" fill="#70D727"/>
</svg>
