<svg width="40" height="40" viewBox="0 0 40 40" fill="none" xmlns="http://www.w3.org/2000/svg">
<path d="M1.40256 7.91616C0.465841 7.03462 0 5.94345 0 4.64514C0 3.34684 0.468332 2.20762 1.40256 1.32356C2.33928 0.442028 3.54507 0 5.0224 0C6.49973 0 7.6582 0.442028 8.59243 1.32356C9.52915 2.2051 9.99499 3.314 9.99499 4.64514C9.99499 5.97629 9.52666 7.03462 8.59243 7.91616C7.65571 8.79769 6.46735 9.23972 5.0224 9.23972C3.57746 9.23972 2.33928 8.79769 1.40256 7.91616ZM9.20777 12.973V40H0.78473V12.973H9.20777Z" fill="#70D727"/>
<path d="M37.2471 15.6424C39.0832 17.6631 40 20.4366 40 23.9678V39.5222H32.0005V25.064C32.0005 23.2832 31.5446 21.8991 30.6353 20.914C29.726 19.9289 28.5003 19.4338 26.9656 19.4338C25.431 19.4338 24.2052 19.9263 23.2959 20.914C22.3866 21.8991 21.9307 23.2832 21.9307 25.064V39.5222H13.8839V12.8968H21.9307V16.428C22.7454 15.2509 23.8441 14.3214 25.2242 13.6369C26.6044 12.9523 28.1565 12.6113 29.8829 12.6113C32.9572 12.6113 35.4135 13.6217 37.2471 15.6424Z" fill="#70D727"/>
</svg>
