<svg width="42" height="42" viewBox="0 0 42 42" fill="none" xmlns="http://www.w3.org/2000/svg">
<path d="M33.25 1.74951H8.75C6.43021 1.75229 4.20623 2.67506 2.56588 4.3154C0.925543 5.95574 0.00277875 8.17972 0 10.4995L0 31.4995C0.00277875 33.8193 0.925543 36.0433 2.56588 37.6836C4.20623 39.324 6.43021 40.2467 8.75 40.2495H33.25C35.5698 40.2467 37.7938 39.324 39.4341 37.6836C41.0745 36.0433 41.9972 33.8193 42 31.4995V10.4995C41.9972 8.17972 41.0745 5.95574 39.4341 4.3154C37.7938 2.67506 35.5698 1.75229 33.25 1.74951ZM8.75 5.24951H33.25C34.2979 5.25157 35.3212 5.56716 36.1882 6.15567C37.0552 6.74417 37.7262 7.57867 38.115 8.55176L24.7135 21.955C23.7273 22.9373 22.392 23.4888 21 23.4888C19.608 23.4888 18.2727 22.9373 17.2865 21.955L3.885 8.55176C4.27376 7.57867 4.94482 6.74417 5.81183 6.15567C6.67884 5.56716 7.70213 5.25157 8.75 5.24951ZM33.25 36.7495H8.75C7.35761 36.7495 6.02226 36.1964 5.03769 35.2118C4.05312 34.2273 3.5 32.8919 3.5 31.4995V13.1245L14.812 24.4295C16.4546 26.068 18.6799 26.9881 21 26.9881C23.3201 26.9881 25.5454 26.068 27.188 24.4295L38.5 13.1245V31.4995C38.5 32.8919 37.9469 34.2273 36.9623 35.2118C35.9777 36.1964 34.6424 36.7495 33.25 36.7495Z" fill="#70D727"/>
</svg>
