<svg width="48" height="48" viewBox="0 0 48 48" fill="none" xmlns="http://www.w3.org/2000/svg">
<g clip-path="url(#clip0_1_126)">
<path d="M38 48H10C7.34881 47.9968 4.80712 46.9422 2.93244 45.0676C1.05776 43.1929 0.00317572 40.6512 0 38L0 10C0.00317572 7.34881 1.05776 4.80712 2.93244 2.93244C4.80712 1.05776 7.34881 0.00317572 10 0L38 0C40.6512 0.00317572 43.1929 1.05776 45.0676 2.93244C46.9422 4.80712 47.9968 7.34881 48 10V38C47.9968 40.6512 46.9422 43.1929 45.0676 45.0676C43.1929 46.9422 40.6512 47.9968 38 48ZM10 4C8.4087 4 6.88258 4.63214 5.75736 5.75736C4.63214 6.88258 4 8.4087 4 10V38C4 39.5913 4.63214 41.1174 5.75736 42.2426C6.88258 43.3679 8.4087 44 10 44H38C39.5913 44 41.1174 43.3679 42.2426 42.2426C43.3679 41.1174 44 39.5913 44 38V10C44 8.4087 43.3679 6.88258 42.2426 5.75736C41.1174 4.63214 39.5913 4 38 4H10ZM18.684 34.01C17.8503 34.0072 17.032 33.7844 16.312 33.364C15.6007 32.9569 15.0103 32.3681 14.6013 31.6579C14.1922 30.9477 13.9792 30.1416 13.984 29.322V18.678C13.9833 17.8583 14.1982 17.0528 14.6072 16.3424C15.0161 15.632 15.6047 15.0416 16.3138 14.6305C17.023 14.2194 17.8278 14.002 18.6475 14.0001C19.4672 13.9983 20.273 14.2121 20.984 14.62L31.54 19.89C32.2732 20.2858 32.8873 20.8706 33.3185 21.5836C33.7497 22.2966 33.9823 23.112 33.9923 23.9452C34.0023 24.7784 33.7893 25.5991 33.3753 26.3222C32.9614 27.0454 32.3615 27.6447 31.638 28.058L20.886 33.432C20.2154 33.8145 19.456 34.0138 18.684 34.01ZM18.634 18.01C18.5238 18.01 18.4155 18.0389 18.32 18.094C18.2163 18.1517 18.1302 18.2365 18.071 18.3394C18.0118 18.4423 17.9817 18.5593 17.984 18.678V29.322C17.9847 29.4389 18.0158 29.5536 18.0742 29.6549C18.1326 29.7562 18.2164 29.8405 18.3172 29.8996C18.4181 29.9587 18.5326 29.9906 18.6495 29.992C18.7664 29.9935 18.8817 29.9646 18.984 29.908L29.736 24.532C29.8161 24.4694 29.8798 24.3882 29.9216 24.2956C29.9634 24.2029 29.982 24.1015 29.976 24C29.9785 23.881 29.9483 23.7637 29.8887 23.6607C29.8291 23.5577 29.7424 23.4731 29.638 23.416L19.09 18.146C18.9525 18.0616 18.7953 18.0147 18.634 18.01Z" fill="#70D727"/>
</g>
<defs>
<clipPath id="clip0_1_126">
<rect width="48" height="48" fill="white"/>
</clipPath>
</defs>
</svg>
