<svg width="48" height="48" viewBox="0 0 48 48" fill="none" xmlns="http://www.w3.org/2000/svg">
<path d="M38 2.00024H10C7.34881 2.00342 4.80712 3.05801 2.93244 4.93268C1.05776 6.80736 0.00317572 9.34905 0 12.0002L0 36.0002C0.00317572 38.6514 1.05776 41.1931 2.93244 43.0678C4.80712 44.9425 7.34881 45.9971 10 46.0002H38C40.6512 45.9971 43.1929 44.9425 45.0676 43.0678C46.9422 41.1931 47.9968 38.6514 48 36.0002V12.0002C47.9968 9.34905 46.9422 6.80736 45.0676 4.93268C43.1929 3.05801 40.6512 2.00342 38 2.00024ZM10 6.00024H38C39.5913 6.00024 41.1174 6.63239 42.2426 7.7576C43.3679 8.88282 44 10.4089 44 12.0002V14.0002H4V12.0002C4 10.4089 4.63214 8.88282 5.75736 7.7576C6.88258 6.63239 8.4087 6.00024 10 6.00024ZM38 42.0002H10C8.4087 42.0002 6.88258 41.3681 5.75736 40.2429C4.63214 39.1177 4 37.5915 4 36.0002V18.0002H44V36.0002C44 37.5915 43.3679 39.1177 42.2426 40.2429C41.1174 41.3681 39.5913 42.0002 38 42.0002ZM38 26.0002C38 26.5307 37.7893 27.0394 37.4142 27.4145C37.0391 27.7895 36.5304 28.0002 36 28.0002H12C11.4696 28.0002 10.9609 27.7895 10.5858 27.4145C10.2107 27.0394 10 26.5307 10 26.0002C10 25.4698 10.2107 24.9611 10.5858 24.586C10.9609 24.211 11.4696 24.0002 12 24.0002H36C36.5304 24.0002 37.0391 24.211 37.4142 24.586C37.7893 24.9611 38 25.4698 38 26.0002ZM30 34.0002C30 34.5307 29.7893 35.0394 29.4142 35.4145C29.0391 35.7895 28.5304 36.0002 28 36.0002H12C11.4696 36.0002 10.9609 35.7895 10.5858 35.4145C10.2107 35.0394 10 34.5307 10 34.0002C10 33.4698 10.2107 32.9611 10.5858 32.586C10.9609 32.211 11.4696 32.0002 12 32.0002H28C28.5304 32.0002 29.0391 32.211 29.4142 32.586C29.7893 32.9611 30 33.4698 30 34.0002ZM6 10.0002C6 9.60468 6.1173 9.218 6.33706 8.8891C6.55682 8.56021 6.86918 8.30386 7.23463 8.15248C7.60009 8.00111 8.00222 7.9615 8.39018 8.03867C8.77814 8.11584 9.13451 8.30633 9.41421 8.58603C9.69392 8.86574 9.8844 9.2221 9.96157 9.61006C10.0387 9.99803 9.99913 10.4002 9.84776 10.7656C9.69638 11.1311 9.44004 11.4434 9.11114 11.6632C8.78224 11.8829 8.39556 12.0002 8 12.0002C7.46957 12.0002 6.96086 11.7895 6.58579 11.4145C6.21071 11.0394 6 10.5307 6 10.0002ZM12 10.0002C12 9.60468 12.1173 9.218 12.3371 8.8891C12.5568 8.56021 12.8692 8.30386 13.2346 8.15248C13.6001 8.00111 14.0022 7.9615 14.3902 8.03867C14.7781 8.11584 15.1345 8.30633 15.4142 8.58603C15.6939 8.86574 15.8844 9.2221 15.9616 9.61006C16.0387 9.99803 15.9991 10.4002 15.8478 10.7656C15.6964 11.1311 15.44 11.4434 15.1111 11.6632C14.7822 11.8829 14.3956 12.0002 14 12.0002C13.4696 12.0002 12.9609 11.7895 12.5858 11.4145C12.2107 11.0394 12 10.5307 12 10.0002ZM18 10.0002C18 9.60468 18.1173 9.218 18.3371 8.8891C18.5568 8.56021 18.8692 8.30386 19.2346 8.15248C19.6001 8.00111 20.0022 7.9615 20.3902 8.03867C20.7781 8.11584 21.1345 8.30633 21.4142 8.58603C21.6939 8.86574 21.8844 9.2221 21.9616 9.61006C22.0387 9.99803 21.9991 10.4002 21.8478 10.7656C21.6964 11.1311 21.44 11.4434 21.1111 11.6632C20.7822 11.8829 20.3956 12.0002 20 12.0002C19.4696 12.0002 18.9609 11.7895 18.5858 11.4145C18.2107 11.0394 18 10.5307 18 10.0002Z" fill="#70D727"/>
</svg>
