<svg width="38" height="37" viewBox="0 0 38 37" fill="none" xmlns="http://www.w3.org/2000/svg">
<path d="M19.0797 0C8.65051 0 0.163032 8.2251 0.159355 18.3335C0.156903 21.5661 1.02968 24.7209 2.68452 27.4996L0 37L10.0308 34.4507C12.821 35.9192 15.9234 36.6852 19.0723 36.683H19.0797C29.5088 36.683 37.9963 28.4567 38 18.3483C38.0024 13.452 36.0363 8.843 32.463 5.37857C28.891 1.9129 24.141 0.00123333 19.0797 0ZM19.0797 33.5861H19.0735C16.2517 33.5861 13.4839 32.8511 11.069 31.4623L10.4929 31.1318L4.54284 32.6439L6.13148 27.0199L5.75761 26.4439C4.18724 24.0341 3.35127 21.2151 3.35258 18.3335C3.35626 9.9308 10.412 3.0969 19.0858 3.0969C23.2854 3.09813 27.2337 4.68543 30.2039 7.56527C33.174 10.4451 34.808 14.2746 34.8055 18.3471C34.8019 26.7498 27.7474 33.5861 19.0785 33.5861H19.0797ZM27.7057 22.1716C27.2325 21.9435 24.9084 20.8347 24.4744 20.6805C24.0417 20.5288 23.7267 20.4499 23.4117 20.9087C23.0979 21.3675 22.1908 22.3998 21.9162 22.7044C21.6392 23.0103 21.3634 23.0473 20.8902 22.8191C20.417 22.5897 18.8934 22.1063 17.089 20.5449C15.683 19.3313 14.7342 17.8315 14.4584 17.3715C14.1826 16.9139 14.429 16.666 14.6655 16.4379C14.8776 16.2344 15.1387 15.9038 15.3741 15.6362C15.6094 15.3686 15.6879 15.1774 15.8472 14.8715C16.0041 14.5669 15.9257 14.298 15.8068 14.0699C15.6879 13.8392 14.744 11.5847 14.3481 10.6683C13.9656 9.7754 13.5758 9.89503 13.2853 9.88023C13.0095 9.8679 12.6957 9.8642 12.3782 9.8642C12.0656 9.8642 11.552 9.9789 11.1181 10.4377C10.6854 10.8965 9.46322 12.004 9.46322 14.2586C9.46322 16.5143 11.1573 18.6924 11.3939 18.9983C11.6305 19.3029 14.7281 23.9316 19.4707 25.9173C20.5984 26.3872 21.4786 26.6696 22.1663 26.8817C23.2989 27.2308 24.3298 27.1802 25.1437 27.063C26.0508 26.9311 27.941 25.9555 28.3333 24.8862C28.728 23.8169 28.728 22.8993 28.6103 22.7081C28.4951 22.517 28.1788 22.4023 27.7057 22.1716V22.1716Z" fill="#70D727"/>
</svg>
